<?xml version="1.0" standalone="no"?>
<!DOCTYPE svg PUBLIC "-//W3C//DTD SVG 20010904//EN"
 "http://www.w3.org/TR/2001/REC-SVG-20010904/DTD/svg10.dtd">
<svg version="1.0" xmlns="http://www.w3.org/2000/svg"
 width="500.000000pt" height="500.000000pt" viewBox="0 0 500.000000 500.000000"
 preserveAspectRatio="xMidYMid meet">

<g transform="translate(0.000000,500.000000) scale(0.100000,-0.100000)"
fill="#000000" stroke="none">
<path d="M0 2500 l0 -2500 2500 0 2500 0 0 2500 0 2500 -2500 0 -2500 0 0
-2500z m2340 1445 c0 -6 -56 -35 -67 -35 -4 1 8 9 27 20 39 22 40 22 40 15z
m321 -12 c-13 -24 -66 -74 -121 -112 -25 -18 -53 -46 -62 -64 -10 -17 -18 -26
-18 -19 0 28 23 53 95 107 41 30 82 66 91 80 19 28 30 34 15 8z m-555 -38 c-3
-8 -8 -37 -12 -63 l-6 -47 49 45 48 45 -48 -50 -47 -51 11 -59 c14 -76 17 -80
42 -58 22 18 22 18 4 -4 -16 -18 -17 -25 -7 -45 16 -31 111 -128 126 -128 7 0
14 -7 18 -15 3 -8 12 -12 21 -9 11 5 14 2 9 -10 -3 -9 -2 -16 3 -16 6 0 20 -9
33 -20 28 -24 38 -25 70 -4 l25 16 -24 -21 c-13 -12 -21 -24 -18 -27 13 -13
48 10 95 65 28 32 79 82 114 112 37 31 13 3 -59 -69 -68 -67 -123 -124 -123
-126 0 -2 16 -14 37 -26 l36 -21 44 45 c38 40 49 46 84 46 43 0 48 -4 127 -98
56 -67 79 -78 187 -86 50 -4 106 -11 125 -16 l35 -10 -40 5 c-22 3 -78 8 -125
11 -109 9 -142 26 -210 110 -50 61 -61 69 -94 72 -33 3 -44 -2 -77 -34 -22
-21 -39 -43 -39 -49 0 -5 24 -23 53 -39 175 -98 334 -225 404 -323 25 -35 50
-63 56 -64 8 0 8 -2 1 -5 -15 -6 7 -92 27 -105 10 -6 10 -9 2 -9 -22 0 -14
-24 15 -44 15 -10 38 -34 50 -52 32 -49 27 -54 -8 -6 -16 23 -38 46 -49 51
-18 10 -20 7 -26 -43 -6 -42 -3 -60 9 -78 9 -12 16 -27 16 -33 -1 -5 -8 3 -16
19 l-16 29 -31 -64 c-30 -62 -160 -209 -173 -196 -3 3 8 35 26 70 24 49 32 81
35 133 5 104 -1 124 -39 125 -30 2 -30 2 -3 6 35 5 39 42 5 44 -17 1 -18 3 -6
6 28 7 9 33 -26 34 l-31 1 28 7 c26 6 27 7 12 29 -9 12 -34 31 -56 42 -47 24
-53 37 -6 15 26 -13 21 -5 -28 40 -33 30 -66 53 -73 50 -7 -3 -11 -1 -8 4 5 8
-54 61 -68 61 -2 0 -7 -13 -11 -30 -9 -43 -42 -80 -72 -80 -13 0 -54 16 -90
36 -54 31 -79 38 -147 44 l-81 7 72 2 c66 1 78 -2 152 -41 101 -52 126 -48
153 25 l18 47 -38 20 c-20 11 -45 26 -54 32 -14 10 -21 8 -40 -7 l-23 -20 19
23 c11 12 17 24 15 25 -2 2 -43 26 -90 54 l-85 50 -187 7 -186 7 -25 -49 c-28
-55 -50 -67 -135 -76 -29 -3 -64 -12 -77 -21 -13 -8 -27 -15 -31 -15 -4 0 6 9
23 20 18 12 61 24 99 29 73 8 89 20 128 91 l17 32 178 -7 c161 -6 175 -5 157
9 -13 10 -44 16 -85 17 l-65 2 55 6 55 6 -80 6 c-66 5 -94 13 -164 48 -113 55
-158 53 -195 -10 -28 -47 -67 -89 -97 -105 -40 -20 -36 -10 6 16 20 12 51 46
70 75 56 88 90 94 204 40 78 -37 105 -41 49 -8 -18 11 -60 37 -92 57 -92 56
-153 44 -201 -38 -14 -24 -33 -50 -41 -57 -9 -7 3 15 25 49 74 110 131 117
259 33 91 -59 121 -71 170 -70 l37 2 -35 7 c-24 5 -28 8 -12 9 31 1 20 17 -18
24 -16 4 -45 21 -63 39 -18 18 -21 23 -7 12 27 -23 64 -44 76 -44 5 0 -11 19
-34 43 -22 23 -48 61 -56 85 -17 47 -23 179 -11 226 6 23 5 27 -6 21 -8 -5 -6
1 5 13 10 12 16 28 13 36 -3 8 1 20 9 27 8 6 13 17 12 23 -3 13 53 95 66 96 4
0 6 -7 2 -15z m153 11 c-10 -9 -69 -36 -69 -32 0 7 52 35 64 36 5 0 7 -2 5 -4z
m735 -96 c-4 -52 -8 -96 -9 -98 -2 -2 -15 20 -30 49 -14 29 -41 73 -60 98
l-33 46 69 0 70 0 -7 -95z m-784 -23 c0 -2 -19 -21 -42 -42 l-43 -40 40 43
c36 39 45 47 45 39z m103 -4 c-7 -2 -19 -2 -25 0 -7 3 -2 5 12 5 14 0 19 -2
13 -5z m361 -62 c20 -16 56 -32 79 -36 23 -4 49 -11 57 -17 12 -7 11 -8 -5 -4
-11 3 -37 8 -58 12 -20 3 -55 19 -77 35 -45 33 -65 36 -100 13 l-25 -16 24 21
c32 29 62 26 105 -8z m-217 -48 c-3 -10 -5 -2 -5 17 0 19 2 27 5 18 2 -10 2
-26 0 -35z m483 3 c0 -12 -5 -7 -19 24 -11 24 -11 24 3 6 9 -11 16 -24 16 -30z
m-978 0 c-9 -19 -18 -30 -20 -26 -3 8 26 60 34 60 2 0 -4 -15 -14 -34z m575
-18 c-3 -8 -6 -5 -6 6 -1 11 2 17 5 13 3 -3 4 -12 1 -19z m323 -52 c0 -11 -5
-45 -12 -76 -15 -74 -6 -102 48 -156 24 -25 36 -40 25 -35 -27 15 -80 81 -88
110 -3 13 0 54 7 92 10 54 11 75 1 97 -10 25 -10 26 4 8 8 -11 15 -29 15 -40z
m-424 -69 c-10 -25 -28 -43 -56 -57 -23 -12 -44 -19 -46 -17 -3 2 9 10 25 16
51 22 74 55 80 118 6 54 6 55 9 16 2 -22 -4 -57 -12 -76z m111 51 c-2 -13 -4
-5 -4 17 -1 22 1 32 4 23 2 -10 2 -28 0 -40z m180 26 c-3 -3 -12 -4 -19 -1 -8
3 -5 6 6 6 11 1 17 -2 13 -5z m82 -48 l-2 -31 -4 30 c-3 17 -10 37 -16 45 -10
13 -10 13 6 1 10 -8 16 -25 16 -45z m-862 -3 c-3 -10 -5 -4 -5 12 0 17 2 24 5
18 2 -7 2 -21 0 -30z m570 -56 c-14 -24 -33 -50 -42 -57 -9 -7 0 11 20 40 19
28 35 57 35 63 0 6 3 8 6 4 4 -3 -5 -26 -19 -50z m-560 11 c-3 -8 -6 -5 -6 6
-1 11 2 17 5 13 3 -3 4 -12 1 -19z m840 -50 c-2 -13 -4 -3 -4 22 0 25 2 35 4
23 2 -13 2 -33 0 -45z m-337 19 c0 -2 -10 -12 -22 -23 l-23 -19 19 23 c18 21
26 27 26 19z m768 -14 c-9 -10 -25 -34 -37 -53 -11 -19 -21 -30 -21 -24 0 13
57 94 67 94 3 0 -1 -8 -9 -17z m-1239 -33 c11 -24 11 -24 -3 -6 -9 11 -16 24
-16 30 0 12 5 7 19 -24z m1254 8 c-11 -13 -30 -41 -41 -63 -12 -22 -21 -36
-22 -32 0 9 38 87 52 105 6 6 15 12 21 12 6 0 1 -10 -10 -22z m-423 -28 c6
-11 8 -20 6 -20 -3 0 -10 9 -16 20 -6 11 -8 20 -6 20 3 0 10 -9 16 -20z m171
-7 c13 -16 12 -17 -3 -4 -17 13 -22 21 -14 21 2 0 10 -8 17 -17z m-461 4 c0
-2 -10 -12 -22 -23 l-23 -19 19 23 c18 21 26 27 26 19z m211 -34 c13 -16 12
-17 -3 -4 -17 13 -22 21 -14 21 2 0 10 -8 17 -17z m114 -13 c10 -11 16 -20 13
-20 -3 0 -13 9 -23 20 -10 11 -16 20 -13 20 3 0 13 -9 23 -20z m421 -16 c-6
-19 -12 -28 -14 -20 -3 13 14 56 22 56 2 0 -2 -16 -8 -36z m-1275 9 c13 -16
12 -17 -3 -4 -10 7 -18 15 -18 17 0 8 8 3 21 -13z m810 0 c13 -16 12 -17 -3
-4 -17 13 -22 21 -14 21 2 0 10 -8 17 -17z m359 8 c0 -5 -12 -23 -26 -40 -24
-28 -30 -31 -82 -29 l-57 1 60 6 c54 5 62 9 80 38 22 35 25 38 25 24z m-177
-76 c23 -8 33 -14 22 -14 -24 -1 -120 42 -129 58 -4 6 9 2 29 -10 19 -12 54
-27 78 -34z m178 22 c-10 -9 -11 -8 -5 6 3 10 9 15 12 12 3 -3 0 -11 -7 -18z
m-186 3 c13 -6 15 -9 5 -9 -8 0 -22 4 -30 9 -18 12 -2 12 25 0z m-1108 -16
c-3 -3 -12 -4 -19 -1 -8 3 -5 6 6 6 11 1 17 -2 13 -5z m40 0 c-3 -3 -12 -4
-19 -1 -8 3 -5 6 6 6 11 1 17 -2 13 -5z m1340 -31 c-3 -10 -5 -4 -5 12 0 17 2
24 5 18 2 -7 2 -21 0 -30z m-102 17 c-3 -5 -12 -10 -18 -10 -7 0 -6 4 3 10 19
12 23 12 15 0z m35 -4 c0 -2 -8 -10 -17 -17 -16 -13 -17 -12 -4 4 13 16 21 21
21 13z m-82 -13 c-10 -2 -28 -2 -40 0 -13 2 -5 4 17 4 22 1 32 -1 23 -4z m120
-59 c-19 -19 -38 -27 -74 -30 l-49 -3 53 10 c35 7 58 18 70 34 9 13 19 21 21
19 3 -3 -7 -16 -21 -30z m-1091 10 c-3 -3 -12 -4 -19 -1 -8 3 -5 6 6 6 11 1
17 -2 13 -5z m-167 -58 c0 -2 -8 -10 -17 -17 -16 -13 -17 -12 -4 4 13 16 21
21 21 13z m1067 -2 c-3 -3 -12 -4 -19 -1 -8 3 -5 6 6 6 11 1 17 -2 13 -5z
m-844 -11 c-23 -2 -64 -2 -90 0 -26 2 -7 3 42 3 50 0 71 -1 48 -3z m1004 1
c-3 -3 -12 -4 -19 -1 -8 3 -5 6 6 6 11 1 17 -2 13 -5z m-1172 -18 c-16 -8 -46
-30 -65 -51 -52 -55 -79 -65 -162 -63 l-73 2 65 3 c96 5 105 8 170 68 33 30
68 55 77 55 11 -1 7 -6 -12 -14z m303 7 c-15 -2 -42 -2 -60 0 -18 2 -6 4 27 4
33 0 48 -2 33 -4z m-249 -36 c-2 -1 -15 -11 -29 -22 l-25 -20 19 23 c11 12 24
22 29 22 6 0 8 -1 6 -3z m1048 -3 c-3 -3 -12 -4 -19 -1 -8 3 -5 6 6 6 11 1 17
-2 13 -5z m-774 -51 c-13 -2 -33 -2 -45 0 -13 2 -3 4 22 4 25 0 35 -2 23 -4z
m-147 -24 c-43 -11 -81 -17 -83 -15 -6 5 107 34 137 34 14 0 -11 -8 -54 -19z
m217 14 c-7 -2 -21 -2 -30 0 -10 3 -4 5 12 5 17 0 24 -2 18 -5z m-703 -26 c0
-2 -12 -14 -27 -28 l-28 -24 24 28 c23 25 31 32 31 24z m613 -4 c-7 -2 -19 -2
-25 0 -7 3 -2 5 12 5 14 0 19 -2 13 -5z m-224 -6 c-16 -13 -99 -57 -99 -53 0
7 83 56 94 56 5 0 7 -1 5 -3z m976 -51 c6 -4 1 -4 -10 2 -11 6 -29 21 -40 34
-19 22 -19 22 10 -2 17 -14 35 -29 40 -34z m-1308 28 c-3 -3 -12 -4 -19 -1 -8
3 -5 6 6 6 11 1 17 -2 13 -5z m375 -19 c-48 -15 -75 -31 -147 -87 l-50 -40 50
46 c54 50 136 96 169 95 12 0 2 -6 -22 -14z m111 -12 c-13 -2 -35 -2 -50 0
-16 2 -5 4 22 4 28 0 40 -2 28 -4z m-263 -7 c0 -4 -98 -69 -130 -86 -40 -21
-19 -4 56 45 71 46 74 48 74 41z m220 -25 c-95 -8 -142 -39 -196 -128 -34 -55
-91 -103 -120 -103 -5 0 9 11 31 23 23 13 53 43 72 72 74 118 118 146 223 143
l65 -1 -75 -6z m155 -49 c-3 -3 -16 5 -28 17 l-22 23 28 -17 c15 -10 25 -20
22 -23z m-198 12 c-3 -3 -12 -4 -19 -1 -8 3 -5 6 6 6 11 1 17 -2 13 -5z m521
-14 c-20 -3 -65 -25 -99 -48 -85 -57 -124 -58 -182 -1 l-42 42 43 -37 c59 -50
118 -49 177 5 33 29 78 49 110 48 28 -1 28 -2 -7 -9z m455 3 c-7 -2 -21 -2
-30 0 -10 3 -4 5 12 5 17 0 24 -2 18 -5z m-1323 -33 c-8 -5 -26 -9 -40 -9 -23
1 -23 2 5 9 43 11 52 11 35 0z m-103 -6 c-3 -3 -12 -4 -19 -1 -8 3 -5 6 6 6
11 1 17 -2 13 -5z m218 -4 c-7 -11 -79 -50 -92 -50 -4 0 15 13 42 29 60 34 58
34 50 21z m55 -3 c0 -2 -10 -12 -22 -23 l-23 -19 19 23 c18 21 26 27 26 19z
m1143 -14 c-7 -2 -21 -2 -30 0 -10 3 -4 5 12 5 17 0 24 -2 18 -5z m-66 -9 c-3
-3 -12 -4 -19 -1 -8 3 -5 6 6 6 11 1 17 -2 13 -5z m139 -15 c19 -11 34 -23 34
-26 0 -2 -15 4 -32 15 -18 11 -40 22 -48 25 -11 4 -12 6 -1 6 7 1 29 -8 47
-20z m-1463 4 c-7 -2 -19 -2 -25 0 -7 3 -2 5 12 5 14 0 19 -2 13 -5z m173 -28
c-11 -8 -25 -15 -30 -15 -6 1 0 7 14 15 32 19 40 18 16 0z m-119 -1 c-3 -3
-12 -4 -19 -1 -8 3 -5 6 6 6 11 1 17 -2 13 -5z m-40 -10 c-3 -3 -12 -4 -19 -1
-8 3 -5 6 6 6 11 1 17 -2 13 -5z m416 -21 c-7 -2 -19 -2 -25 0 -7 3 -2 5 12 5
14 0 19 -2 13 -5z m-153 -37 c0 -2 -8 -10 -17 -17 -16 -13 -17 -12 -4 4 13 16
21 21 21 13z m600 -3 c-8 -3 -36 -16 -62 -30 -27 -13 -48 -21 -48 -18 0 8 94
54 110 54 13 -1 13 -1 0 -6z m120 -8 c19 -7 28 -13 20 -13 -8 0 -31 6 -50 13
-19 7 -28 13 -20 13 8 0 31 -6 50 -13z m-886 -14 c-18 -11 -34 -25 -37 -33 -3
-8 -6 -9 -6 -1 -1 13 46 53 63 53 6 0 -3 -9 -20 -19z m493 -7 c-3 -3 -12 -4
-19 -1 -8 3 -5 6 6 6 11 1 17 -2 13 -5z m-416 -28 c-10 -11 -10 -20 0 -38 25
-48 30 -50 58 -26 l26 23 -24 -27 -24 -27 31 -38 c27 -35 65 -70 142 -132 l25
-20 -60 16 c-33 9 -87 16 -121 17 l-61 1 -6 119 c-6 110 -1 146 20 146 3 0 0
-6 -6 -14z m314 -6 c33 -10 52 -19 43 -19 -9 -1 -29 4 -45 10 -15 6 -53 15
-83 19 -50 7 -51 7 -15 9 22 0 67 -8 100 -19z m-146 7 c-16 -13 -79 -48 -79
-44 0 7 63 47 74 47 5 0 7 -1 5 -3z m-199 -21 c0 -2 -8 -10 -17 -17 -16 -13
-17 -12 -4 4 13 16 21 21 21 13z m493 -13 c-13 -2 -33 -2 -45 0 -13 2 -3 4 22
4 25 0 35 -2 23 -4z m270 -40 c3 -5 -17 -8 -43 -8 -27 0 -43 3 -37 7 16 10 75
10 80 1z m-370 -31 c-10 -10 -20 -17 -22 -16 -6 5 20 34 30 34 5 0 1 -8 -8
-18z m423 -14 l29 -33 -32 29 c-31 28 -38 36 -30 36 2 0 16 -15 33 -32z m-209
6 c-3 -3 -12 -4 -19 -1 -8 3 -5 6 6 6 11 1 17 -2 13 -5z m-49 -11 c-10 -2 -26
-2 -35 0 -10 3 -2 5 17 5 19 0 27 -2 18 -5z m-58 -7 c0 -2 -7 -7 -16 -10 -8
-3 -12 -2 -9 4 6 10 25 14 25 6z m46 -76 c53 -23 74 -54 73 -105 l-2 -40 -6
47 c-8 56 -14 64 -83 97 -29 14 -54 33 -57 41 -3 10 1 9 14 -4 10 -10 38 -26
61 -36z m-329 14 c-3 -3 -12 -4 -19 -1 -8 3 -5 6 6 6 11 1 17 -2 13 -5z m663
-14 c6 -11 8 -20 6 -20 -3 0 -10 9 -16 20 -6 11 -8 20 -6 20 3 0 10 -9 16 -20z
m-607 -37 c-7 -2 -21 -2 -30 0 -10 3 -4 5 12 5 17 0 24 -2 18 -5z m637 -28 c0
-5 -5 -3 -10 5 -5 8 -10 20 -10 25 0 6 5 3 10 -5 5 -8 10 -19 10 -25z m-224
-207 c4 -6 -3 -19 -16 -30 -15 -12 -18 -18 -7 -18 23 0 40 -27 33 -55 -5 -20
-13 -25 -36 -25 -23 0 -31 5 -36 25 -4 14 -1 32 6 40 10 12 9 16 -1 19 -83 24
-88 24 -103 7 -11 -12 -16 -37 -16 -74 l0 -57 38 -2 37 -1 -37 -4 -38 -4 0
-133 c0 -89 4 -136 12 -144 9 -9 -1 -12 -45 -12 -54 0 -57 1 -47 19 5 11 10
76 10 145 0 113 -2 126 -17 127 -15 1 -15 2 -2 6 9 2 21 22 28 44 13 44 69
105 115 125 38 16 112 18 122 2z m-672 -164 c10 -4 16 -18 16 -41 l0 -34 -34
35 c-28 30 -40 36 -74 36 -31 0 -45 -5 -56 -22 -23 -33 -2 -56 80 -90 38 -15
75 -35 82 -45 15 -21 15 -83 -1 -104 -31 -40 -110 -53 -182 -29 -33 11 -35 14
-35 53 l0 42 20 -25 c11 -14 20 -28 20 -32 0 -4 13 -14 30 -23 56 -29 120 -13
120 30 0 33 -30 58 -94 79 -94 29 -122 92 -67 147 27 26 36 29 94 29 36 0 72
-3 81 -6z m303 -9 c30 -21 43 -74 43 -180 0 -57 4 -95 12 -103 9 -9 3 -12 -29
-12 -50 0 -55 10 -55 117 l0 74 -32 -7 c-89 -19 -132 -65 -105 -112 22 -40 62
-41 99 -3 36 36 40 20 5 -25 -61 -79 -169 -58 -169 33 0 48 36 78 130 105 63
19 74 25 74 44 0 29 -44 64 -80 64 -15 0 -45 -12 -66 -26 -24 -17 -33 -20 -24
-9 43 53 149 74 197 40z m383 -128 c0 -98 4 -147 12 -155 9 -9 -1 -12 -45 -12
-54 0 -57 1 -47 19 14 27 13 234 -1 248 -8 8 -4 15 17 27 63 34 64 31 64 -127z
m140 106 c0 -37 0 -37 16 -15 21 31 66 52 109 52 32 0 36 -3 33 -22 -3 -21 -8
-23 -67 -23 -62 0 -65 -1 -77 -30 -18 -41 -18 -173 0 -207 l15 -28 -61 0 c-59
0 -60 1 -45 18 24 26 25 223 1 243 -14 11 -12 15 18 30 49 27 58 24 58 -18z
m446 21 c125 -59 95 -256 -44 -293 -45 -13 -108 -2 -146 24 -84 60 -72 209 23
263 44 26 119 29 167 6z m-1670 -485 c1 -26 1 -28 -3 -6 -2 15 -9 27 -14 27
-11 0 -12 6 6 -60 21 -77 20 -100 -5 -100 -16 0 -20 6 -19 33 2 30 2 30 6 5 2
-16 9 -28 14 -28 12 0 12 0 -7 75 -9 36 -14 72 -10 81 10 26 31 10 32 -27z
m120 25 c-3 -9 -7 -50 -7 -92 -2 -87 -6 -72 -11 36 -3 56 -1 72 10 72 9 0 12
-6 8 -16z m130 -79 c1 -65 0 -79 -6 -50 -7 38 -7 38 -9 8 0 -17 -5 -35 -11
-38 -6 -4 -10 27 -10 85 0 82 2 91 18 88 15 -3 17 -16 18 -93z m116 13 c-2
-58 1 -84 10 -90 9 -5 6 -8 -9 -8 -22 0 -23 3 -23 90 0 66 3 90 13 90 9 0 12
-20 9 -82z m132 30 c7 -59 6 -143 -1 -115 -6 22 -23 22 -23 0 0 -9 -3 -14 -6
-10 -9 9 6 177 16 177 4 0 10 -24 14 -52z m116 -1 c0 -31 3 -38 10 -27 5 8 10
30 10 48 0 17 5 32 10 32 6 0 9 -37 9 -92 -1 -68 -4 -83 -9 -58 l-7 35 -2 -32
c0 -18 -5 -33 -11 -33 -5 0 -11 15 -11 33 l-2 32 -7 -35 c-5 -25 -8 -9 -9 58
-1 60 3 91 9 87 6 -3 10 -25 10 -48z m250 -37 c0 -43 -4 -82 -10 -85 -6 -4
-10 27 -10 85 0 58 4 89 10 85 6 -3 10 -42 10 -85z m101 47 c2 -30 2 -30 9 8
5 30 7 16 8 -55 0 -61 -2 -88 -8 -75 -5 11 -10 31 -11 45 -1 16 -5 8 -9 -20
-6 -36 -7 -27 -8 48 -1 60 2 91 8 87 6 -3 11 -21 11 -38z m130 0 c2 -30 2 -30
9 8 5 30 7 16 8 -55 0 -61 -2 -88 -8 -75 -5 11 -10 31 -11 45 -1 16 -5 8 -9
-20 -6 -36 -7 -27 -8 48 -1 60 2 91 8 87 6 -3 11 -21 11 -38z m149 -48 c0 -81
-2 -90 -17 -87 -15 3 -19 16 -21 77 -3 83 1 101 23 101 12 0 15 -16 15 -91z
m109 30 l9 -54 1 53 c0 28 5 52 9 52 9 0 -3 -158 -12 -167 -11 -11 -14 2 -21
92 -8 98 -1 111 14 24z m144 -39 c3 -47 4 -77 1 -67 -7 21 -24 23 -24 2 0 -8
-3 -15 -8 -15 -4 0 -4 35 0 78 3 42 7 84 7 92 1 8 4 10 10 5 5 -6 11 -48 14
-95z m119 28 c-5 -109 -9 -123 -11 -32 0 47 -6 85 -13 92 -9 9 -8 12 8 12 18
0 19 -6 16 -72z m105 -65 c-2 -27 -3 -5 -3 47 0 52 1 74 3 48 2 -27 2 -69 0
-95z m131 44 c3 -82 2 -87 -18 -87 -18 0 -20 6 -20 83 0 46 3 87 7 91 19 19
28 -8 31 -87z m113 33 c1 -16 5 -8 9 20 6 36 7 26 8 -50 1 -65 -1 -90 -8 -80
-5 8 -10 29 -11 45 -2 23 -4 20 -9 -15 -5 -35 -7 -24 -8 50 0 61 2 88 8 75 5
-11 10 -31 11 -45z"/>
<path d="M2048 3283 c7 -3 16 -2 19 1 4 3 -2 6 -13 5 -11 0 -14 -3 -6 -6z"/>
<path d="M2103 3273 c15 -2 39 -2 55 0 15 2 2 4 -28 4 -30 0 -43 -2 -27 -4z"/>
<path d="M3052 1983 c-21 -8 -42 -60 -42 -105 0 -52 39 -139 71 -162 13 -9 38
-16 55 -16 73 0 98 104 50 206 -33 72 -80 99 -134 77z"/>
<path d="M1763 1485 c0 -22 2 -30 4 -17 2 12 2 30 0 40 -3 9 -5 -1 -4 -23z"/>
<path d="M2005 1420 c-3 -5 -1 -10 4 -10 6 0 11 5 11 10 0 6 -2 10 -4 10 -3 0
-8 -4 -11 -10z"/>
<path d="M2753 1445 c0 -44 2 -61 4 -37 2 23 2 59 0 80 -2 20 -4 1 -4 -43z"/>
<path d="M3002 1430 c0 -19 2 -27 5 -17 2 9 2 25 0 35 -3 9 -5 1 -5 -18z"/>
<path d="M3350 1445 c0 -43 4 -75 10 -75 6 0 10 32 10 75 0 43 -4 75 -10 75
-6 0 -10 -32 -10 -75z"/>
</g>
</svg>
